HIERARCHY
ROOT Model
{
	OFFSET 0 0 0
	CHANNELS 6 Xposition Yposition Zposition Zrotation Xrotation Yrotation
	JOINT Model1
	{
		OFFSET 0 -2.25479 2.99383
		CHANNELS 3 Zrotation Xrotation Yrotation
		JOINT Model2
		{
			OFFSET 12.111 0 0
			CHANNELS 3 Zrotation Xrotation Yrotation
			JOINT Model3
			{
				OFFSET 11.5502 0 0
				CHANNELS 3 Zrotation Xrotation Yrotation
				JOINT Model4
				{
					OFFSET 11.781 0 0
					CHANNELS 3 Zrotation Xrotation Yrotation
					JOINT Model5
					{
						OFFSET 20.0601 0 0
						CHANNELS 3 Zrotation Xrotation Yrotation
						JOINT Model6
						{
							OFFSET 11.1962 0 0
							CHANNELS 3 Zrotation Xrotation Yrotation
							End Site
							{
								OFFSET 0 0 0
							}
						}
					}
					JOINT Model7
					{
						OFFSET 10.8223 0.417534 3.51114
						CHANNELS 3 Zrotation Xrotation Yrotation
						JOINT Model8
						{
							OFFSET -6.07944 0 0
							CHANNELS 3 Zrotation Xrotation Yrotation
							JOINT Model9
							{
								OFFSET -0.277416 10.39 -0.0512447
								CHANNELS 3 Zrotation Xrotation Yrotation
								JOINT Model10
								{
									OFFSET -3.4391 -0.282043 1.86678
									CHANNELS 3 Zrotation Xrotation Yrotation
									JOINT Model11
									{
										OFFSET 13.0269 0 0
										CHANNELS 3 Zrotation Xrotation Yrotation
										JOINT Model12
										{
											OFFSET 10.8866 0 0
											CHANNELS 3 Zrotation Xrotation Yrotation
											JOINT Model13
											{
												OFFSET 16.7317 0 0
												CHANNELS 3 Zrotation Xrotation Yrotation
												JOINT Model14
												{
													OFFSET 11.8292 0 0
													CHANNELS 3 Zrotation Xrotation Yrotation
													JOINT Model15
													{
														OFFSET 4.82751 -3.73566 -0.836518
														CHANNELS 3 Zrotation Xrotation Yrotation
														JOINT Model16
														{
															OFFSET 3.75311 -0.0582886 -0.0186467
															CHANNELS 3 Zrotation Xrotation Yrotation
															JOINT Model17
															{
																OFFSET 2.88688 0.0192337 0.0148025
																CHANNELS 3 Zrotation Xrotation Yrotation
																End Site
																{
																	OFFSET 0 0 0
																}
															}
														}
													}
													JOINT Model18
													{
														OFFSET 9.72197 -3.06458 0.238767
														CHANNELS 3 Zrotation Xrotation Yrotation
														JOINT Model19
														{
															OFFSET 4.61131 0 0
															CHANNELS 3 Zrotation Xrotation Yrotation
															JOINT Model20
															{
																OFFSET 2.8969 -7.62939e-006 0
																CHANNELS 3 Zrotation Xrotation Yrotation
																End Site
																{
																	OFFSET 0 0 0
																}
															}
														}
													}
													JOINT Model21
													{
														OFFSET 9.54431 -0.745064 0.588937
														CHANNELS 3 Zrotation Xrotation Yrotation
														JOINT Model22
														{
															OFFSET 5.33978 0 0
															CHANNELS 3 Zrotation Xrotation Yrotation
															JOINT Model23
															{
																OFFSET 3.03619 7.62939e-006 0
																CHANNELS 3 Zrotation Xrotation Yrotation
																End Site
																{
																	OFFSET 0 0 0
																}
															}
														}
													}
													JOINT Model24
													{
														OFFSET 9.47759 1.51286 0.48512
														CHANNELS 3 Zrotation Xrotation Yrotation
														JOINT Model25
														{
															OFFSET 4.96136 7.62939e-006 0
															CHANNELS 3 Zrotation Xrotation Yrotation
															JOINT Model26
															{
																OFFSET 2.51966 0 0
																CHANNELS 3 Zrotation Xrotation Yrotation
																End Site
																{
																	OFFSET 0 0 0
																}
															}
														}
													}
													JOINT Model27
													{
														OFFSET 9.34247 3.34117 -0.23928
														CHANNELS 3 Zrotation Xrotation Yrotation
														JOINT Model28
														{
															OFFSET 3.2826 2.28882e-005 0
															CHANNELS 3 Zrotation Xrotation Yrotation
															JOINT Model29
															{
																OFFSET 2.1292 0 0
																CHANNELS 3 Zrotation Xrotation Yrotation
																End Site
																{
																	OFFSET 0 0 0
																}
															}
														}
													}
												}
											}
										}
									}
								}
							}
						}
					}
					JOINT Model30
					{
						OFFSET 10.8223 0.4179 -3.51107
						CHANNELS 3 Zrotation Xrotation Yrotation
						JOINT Model31
						{
							OFFSET 6.07943 0 0
							CHANNELS 3 Zrotation Xrotation Yrotation
							JOINT Model32
							{
								OFFSET 0.277416 -10.39 0.0512447
								CHANNELS 3 Zrotation Xrotation Yrotation
								JOINT Model33
								{
									OFFSET 3.4391 0.282043 -1.86678
									CHANNELS 3 Zrotation Xrotation Yrotation
									JOINT Model34
									{
										OFFSET -13.0269 0 0
										CHANNELS 3 Zrotation Xrotation Yrotation
										JOINT Model35
										{
											OFFSET -10.8866 0 0
											CHANNELS 3 Zrotation Xrotation Yrotation
											JOINT Model36
											{
												OFFSET -16.7317 0 0
												CHANNELS 3 Zrotation Xrotation Yrotation
												JOINT Model37
												{
													OFFSET -11.8292 0 0
													CHANNELS 3 Zrotation Xrotation Yrotation
													JOINT Model38
													{
														OFFSET -4.82751 3.73566 0.836516
														CHANNELS 3 Zrotation Xrotation Yrotation
														JOINT Model39
														{
															OFFSET -3.75311 0.0582886 0.0186429
															CHANNELS 3 Zrotation Xrotation Yrotation
															JOINT Model40
															{
																OFFSET -2.88688 -0.0192337 -0.0148025
																CHANNELS 3 Zrotation Xrotation Yrotation
																End Site
																{
																	OFFSET 0 0 0
																}
															}
														}
													}
													JOINT Model41
													{
														OFFSET -9.72197 3.06459 -0.23877
														CHANNELS 3 Zrotation Xrotation Yrotation
														JOINT Model42
														{
															OFFSET -4.6113 0 0
															CHANNELS 3 Zrotation Xrotation Yrotation
															JOINT Model43
															{
																OFFSET -2.8969 0 0
																CHANNELS 3 Zrotation Xrotation Yrotation
																End Site
																{
																	OFFSET 0 0 0
																}
															}
														}
													}
													JOINT Model44
													{
														OFFSET -9.5443 0.745064 -0.588939
														CHANNELS 3 Zrotation Xrotation Yrotation
														JOINT Model45
														{
															OFFSET -5.33978 0 0
															CHANNELS 3 Zrotation Xrotation Yrotation
															JOINT Model46
															{
																OFFSET -3.03619 -1.52588e-005 0
																CHANNELS 3 Zrotation Xrotation Yrotation
																End Site
																{
																	OFFSET 0 0 0
																}
															}
														}
													}
													JOINT Model47
													{
														OFFSET -9.47759 -1.51286 -0.485122
														CHANNELS 3 Zrotation Xrotation Yrotation
														JOINT Model48
														{
															OFFSET -4.96137 -1.52588e-005 0
															CHANNELS 3 Zrotation Xrotation Yrotation
															JOINT Model49
															{
																OFFSET -2.51966 0 0
																CHANNELS 3 Zrotation Xrotation Yrotation
																End Site
																{
																	OFFSET 0 0 0
																}
															}
														}
													}
													JOINT Model50
													{
														OFFSET -9.34246 -3.34118 0.239278
														CHANNELS 3 Zrotation Xrotation Yrotation
														JOINT Model51
														{
															OFFSET -3.2826 -2.28882e-005 0
															CHANNELS 3 Zrotation Xrotation Yrotation
															JOINT Model52
															{
																OFFSET -2.1292 0 0
																CHANNELS 3 Zrotation Xrotation Yrotation
																End Site
																{
																	OFFSET 0 0 0
																}
															}
														}
													}
												}
											}
										}
									}
								}
							}
						}
					}
				}
			}
		}
	}
	JOINT Model53
	{
		OFFSET 4.38026 -2.14632 -1.11516
		CHANNELS 3 Zrotation Xrotation Yrotation
		JOINT Model54
		{
			OFFSET 0 0 4.94999
			CHANNELS 3 Zrotation Xrotation Yrotation
			JOINT Model55
			{
				OFFSET 18.5642 0 0
				CHANNELS 3 Zrotation Xrotation Yrotation
				JOINT Model56
				{
					OFFSET 21.2884 0 1.15633e-005
					CHANNELS 3 Zrotation Xrotation Yrotation
					JOINT Model57
					{
						OFFSET 30.261 0 0
						CHANNELS 3 Zrotation Xrotation Yrotation
						JOINT Model58
						{
							OFFSET 11.7259 0 0
							CHANNELS 3 Zrotation Xrotation Yrotation
							JOINT Model59
							{
								OFFSET 10.682 0 0
								CHANNELS 3 Zrotation Xrotation Yrotation
								End Site
								{
									OFFSET 0 0 0
								}
							}
						}
					}
				}
			}
		}
	}
	JOINT Model60
	{
		OFFSET -4.38026 -2.14632 -1.11516
		CHANNELS 3 Zrotation Xrotation Yrotation
		JOINT Model61
		{
			OFFSET 0 0 -4.94999
			CHANNELS 3 Zrotation Xrotation Yrotation
			JOINT Model62
			{
				OFFSET -18.5642 0 0
				CHANNELS 3 Zrotation Xrotation Yrotation
				JOINT Model63
				{
					OFFSET -21.2884 0 -1.14441e-005
					CHANNELS 3 Zrotation Xrotation Yrotation
					JOINT Model64
					{
						OFFSET -30.261 0 0
						CHANNELS 3 Zrotation Xrotation Yrotation
						JOINT Model65
						{
							OFFSET -11.7259 0 0
							CHANNELS 3 Zrotation Xrotation Yrotation
							JOINT Model66
							{
								OFFSET -10.682 0 0
								CHANNELS 3 Zrotation Xrotation Yrotation
								End Site
								{
									OFFSET 0 0 0
								}
							}
						}
					}
				}
			}
		}
	}
}
MOTION
Frames: 5
Frame Time: 0.033333
-22.4459 183.61 271.519 84.7803 40.3657 79.6341 -180 4.29621e-031 -90 3.74983 -1.67335 -0.400783 7.49271 -3.36974 -0.691616 7.49271 -3.36931 -0.691673 66.2114 21.9707 0.328566 -59.1267 30.6948 -11.0044 120.092 75.5343 58.4939 30.8813 40.2491 -3.16365 -167.277 84.4999 48.8109 123.322 -3.35427 0.230485 1.458e-005 12.6263 3.26615e-005 -63.1442 0.600186 0.543366 -1.37511e-006 0.235741 -4.37192e-006 11.6141 -0.399249 -3.92421 -72.0648 39.0385 39.3397 33.3638 2.10362 14.835 0.588947 0.308273 6.35287 -99.6409 81.413 100.35 -0.0181409 2.77773e-005 -0.117315 -0.124139 0.00241112 -0.799296 -79.8382 79.5773 80.5374 -0.000225772 -0.000220924 2.21918e-005 -0.00095622 0.000122893 -2.73243e-005 -66.7416 80.4058 67.2171 -0.000437128 1.59442e-005 -2.73233e-005 -0.000136598 -0.000109293 -5.4645e-005 -6.42159 81.2158 8.01779 -0.000218561 1.68998e-005 0.000212138 0.00090159 -0.000184813 -0.000218569 -59.9282 75.5373 58.5147 -0.195098 21.6406 6.96283 -167.277 84.4999 48.8109 -149.704 -9.19319 5.33608 3.4236e-006 9.37399 2.73094e-005 -145.59 -15.8827 0.356944 -6.1214e-006 -22.9625 5.04176e-006 -7.46939 1.95717 -29.3286 -72.0648 39.0385 39.3397 33.3638 2.10361 14.835 0.588946 0.308273 6.35287 -99.6409 81.413 100.35 -0.0181409 3.00752e-005 -0.117315 -0.124139 0.00241113 -0.799296 -79.8382 79.5773 80.5374 -0.000260643 -0.000218569 2.35681e-005 -0.000956222 0.000122992 -2.73238e-005 -66.7416 80.4058 67.2171 -0.000437129 1.48784e-005 -2.7323e-005 -0.0001366 -0.000109287 -5.46446e-005 -6.42159 81.2158 8.01779 -0.000218563 1.95755e-005 0.000212294 0.000901587 -0.00019125 -0.000218569 0.000811311 0.56661 89.91 -52.5785 2.71244 0.618518 1.72499e-006 4.1159 -5.97019e-008 61.8782 -1.02153 -0.0072979 -1.05459e-007 -1.63947 -1.0039e-007 -39.0702 -3.74199 3.7237 -35.4947 9.85757e-007 3.86832e-007 -180 -0.566579 -90.09 -39.7566 -2.63698 -17.1253 -5.84525e-008 0.901919 -1.03363e-009 50.6106 -2.23425 -0.00613283 4.04482e-007 -3.4442 4.62602e-008 -39.168 -4.15008 4.08899 -50.1469 8.56244 0.477571 
-22.2522 191.099 274.142 79.8195 41.3413 84.7512 -180 4.29621e-031 -90 3.82479 -2.12453 -0.507097 7.63859 -4.27855 -0.872044 7.63859 -4.27812 -0.872102 66.6142 23.19 -1.55487 -60.8636 33.1828 -11.4795 120.092 75.5343 58.4939 24.2081 41.3034 0.250231 -167.277 84.4999 48.8109 123.673 -2.99824 3.48482 1.36333e-005 14.2362 3.28814e-005 -59.6708 1.36406 0.525778 -1.28815e-006 1.37518 -4.37315e-006 11.6683 -0.521647 -5.10192 -72.0648 39.0385 39.3397 33.3638 2.10362 14.835 0.588947 0.308273 6.35287 -99.6409 81.413 100.35 -0.0181409 2.77773e-005 -0.117315 -0.124139 0.00241112 -0.799296 -79.8382 79.5773 80.5374 -0.000225772 -0.000220924 2.21918e-005 -0.00095622 0.000122893 -2.73243e-005 -66.7416 80.4058 67.2171 -0.000437128 1.59442e-005 -2.73233e-005 -0.000136598 -0.000109293 -5.4645e-005 -6.42159 81.2158 8.01779 -0.000218561 1.68998e-005 0.000212138 0.00090159 -0.000184813 -0.000218569 -59.9282 75.5373 58.5147 -7.49023 18.8267 8.66116 -167.277 84.4999 48.8109 -154.83 -10.9521 5.78835 5.00241e-006 6.07841 2.70971e-005 -142.796 -14.8193 0.380076 -6.26488e-006 -21.4446 4.98753e-006 -2.00543 0.405373 -22.853 -72.0648 39.0385 39.3397 33.3638 2.10361 14.835 0.588946 0.308273 6.35287 -99.6409 81.413 100.35 -0.0181409 3.00752e-005 -0.117315 -0.124139 0.00241113 -0.799296 -79.8382 79.5773 80.5374 -0.000260643 -0.000218569 2.35681e-005 -0.000956222 0.000122992 -2.73238e-005 -66.7416 80.4058 67.2171 -0.000437129 1.48784e-005 -2.7323e-005 -0.0001366 -0.000109287 -5.46446e-005 -6.42159 81.2158 8.01779 -0.000218563 1.95755e-005 0.000212294 0.000901587 -0.00019125 -0.000218569 0.000811311 0.56661 89.91 -66.9135 3.28173 0.439812 1.726e-006 5.0795 -5.97827e-008 80.8979 -1.89598 -0.00819646 -1.07785e-007 -2.96499 -1.00484e-007 -46.0707 -5.07831 4.08436 -35.4947 1.40445e-006 5.57954e-007 -180 -0.566579 -90.09 -45.3825 0.317515 -10.2735 -5.8421e-008 2.64437 -1.0346e-009 52.3069 -0.422344 -0.00623594 4.0229e-007 -0.728815 4.61803e-008 -34.1519 -6.81925 7.37687 -35.4947 -6.37878e-008 1.04776e-007 
-22.5123 198.248 277.257 74.4564 36.9843 90.6692 -180 4.29621e-031 -90 3.93791 -2.05217 -0.600791 7.86177 -4.14113 -1.06007 7.86176 -4.1407 -1.06013 66.6041 22.9401 -9.46986 -63.3822 33.4776 -7.40267 120.092 75.5343 58.4939 16.9717 39.3915 3.63551 -167.277 84.4999 48.8109 123.416 -2.28353 3.64004 1.29727e-005 15.3464 3.30501e-005 -56.7609 1.5998 0.509522 -1.26121e-006 1.72793 -4.37388e-006 11.5987 -0.672456 -6.61369 -72.0648 39.0385 39.3397 33.3638 2.10362 14.835 0.588947 0.308273 6.35287 -99.6409 81.413 100.35 -0.0181409 2.77773e-005 -0.117315 -0.124139 0.00241112 -0.799296 -79.8382 79.5773 80.5374 -0.000225772 -0.000220924 2.21918e-005 -0.00095622 0.000122893 -2.73243e-005 -66.7416 80.4058 67.2171 -0.000437128 1.59442e-005 -2.73233e-005 -0.000136598 -0.000109293 -5.4645e-005 -6.42159 81.2158 8.01779 -0.000218561 1.68998e-005 0.000212138 0.00090159 -0.000184813 -0.000218569 -59.9282 75.5373 58.5147 -11.5571 19.1665 10.2692 -167.277 84.4999 48.8109 -164.007 -12.7373 4.58475 6.08497e-006 3.79377 2.70039e-005 -138.54 -12.6782 0.412579 -6.54855e-006 -18.3501 4.89095e-006 2.54416 -0.444534 -19.8192 -72.0648 39.0385 39.3397 33.3638 2.10361 14.835 0.588946 0.308273 6.35287 -99.6409 81.413 100.35 -0.0181409 3.00752e-005 -0.117315 -0.124139 0.00241113 -0.799296 -79.8382 79.5773 80.5374 -0.000260643 -0.000218569 2.35681e-005 -0.000956222 0.000122992 -2.73238e-005 -66.7416 80.4058 67.2171 -0.000437129 1.48784e-005 -2.7323e-005 -0.0001366 -0.000109287 -5.46446e-005 -6.42159 81.2158 8.01779 -0.000218563 1.95755e-005 0.000212294 0.000901587 -0.00019125 -0.000218569 0.000811311 0.56661 89.91 -83.17 4.25709 -2.18285 1.72682e-006 5.86302 -5.9861e-008 101.052 -2.77492 -0.00819439 -1.10101e-007 -4.28218 -1.0063e-007 -55.3717 -4.17328 2.42603 -35.4947 1.95155e-006 6.45628e-007 -180 -0.566579 -90.09 -58.1805 2.37324 -1.23547 -5.84017e-008 3.71473 -1.03568e-009 65.7326 -0.86809 -0.00714301 4.02842e-007 -1.41354 4.61907e-008 -38.8492 -8.48287 8.13366 -35.4947 -6.48811e-008 -3.80238e-007 
-22.725 205.131 280.505 71.1179 32.6379 95.298 -180 4.29621e-031 -90 4.06902 -1.98815 -0.756293 8.11892 -4.02528 -1.37068 8.11892 -4.02485 -1.37075 67.2835 24.1333 -13.7462 -62.6849 35.7155 -6.68861 120.092 75.5343 58.4939 13.1789 37.9755 5.25631 -167.277 84.4999 48.8109 121.239 -1.25078 1.62 1.25578e-005 16.0377 3.31623e-005 -51.0981 0.778233 0.473979 -1.35452e-006 0.50552 -4.37206e-006 11.6124 -0.847362 -8.31865 -72.0648 39.0385 39.3397 33.3638 2.10362 14.835 0.588947 0.308273 6.35287 -99.6409 81.413 100.35 -0.0181409 2.77773e-005 -0.117315 -0.124139 0.00241112 -0.799296 -79.8382 79.5773 80.5374 -0.000225772 -0.000220924 2.21918e-005 -0.00095622 0.000122893 -2.73243e-005 -66.7416 80.4058 67.2171 -0.000437128 1.59442e-005 -2.73233e-005 -0.000136598 -0.000109293 -5.4645e-005 -6.42159 81.2158 8.01779 -0.000218561 1.68998e-005 0.000212138 0.00090159 -0.000184813 -0.000218569 -59.9282 75.5373 58.5147 -14.1551 19.6512 11.4461 -167.277 84.4999 48.8109 -174.989 -13.5287 2.31263 6.4115e-006 3.10196 2.69842e-005 -131.997 -10.0613 0.459115 -6.87893e-006 -14.6021 4.7972e-006 5.34749 -0.964747 -20.4396 -72.0648 39.0385 39.3397 33.3638 2.10361 14.835 0.588946 0.308273 6.35287 -99.6409 81.413 100.35 -0.0181409 3.00752e-005 -0.117315 -0.124139 0.00241113 -0.799296 -79.8382 79.5773 80.5374 -0.000260643 -0.000218569 2.35681e-005 -0.000956222 0.000122992 -2.73238e-005 -66.7416 80.4058 67.2171 -0.000437129 1.48784e-005 -2.7323e-005 -0.0001366 -0.000109287 -5.46446e-005 -6.42159 81.2158 8.01779 -0.000218563 1.95755e-005 0.000212294 0.000901587 -0.00019125 -0.000218569 0.000811311 0.56661 89.91 -99.1497 5.60417 -6.0196 1.72633e-006 5.39312 -5.98127e-008 117.118 -3.28176 -0.00745059 -1.11419e-007 -5.02979 -1.00737e-007 -64.7753 -0.415639 -0.568588 -35.4947 2.58855e-006 6.62436e-007 -180 -0.566579 -90.09 -72.6144 2.50361 8.42904 -5.83745e-008 5.21475 -1.0378e-009 83.9673 -3.83714 -0.00781478 4.06457e-007 -5.87808 4.64207e-008 -47.2037 -10.1179 7.97757 -35.4947 -5.11504e-008 -5.14654e-007 
-22.9647 210.799 283.14 69.8069 30.7338 97.4637 -180 4.29621e-031 -90 4.33851 -1.93049 -0.956066 8.65178 -3.92802 -1.76472 8.65177 -3.92759 -1.76479 67.6459 23.8751 -17.4682 -62.287 36.0407 -5.50437 120.092 75.5343 58.4939 12.1461 37.9953 5.76591 -167.277 84.4999 48.8109 117.276 1.17028 -2.1114 1.1518e-005 17.7489 3.34645e-005 -44.5998 -1.16267 0.427801 -1.57447e-006 -2.37559 -4.37565e-006 12.409 -0.971722 -8.92043 -72.0648 39.0385 39.3397 33.3638 2.10362 14.835 0.588947 0.308273 6.35287 -99.6409 81.413 100.35 -0.0181409 2.77773e-005 -0.117315 -0.124139 0.00241112 -0.799296 -79.8382 79.5773 80.5374 -0.000225772 -0.000220924 2.21918e-005 -0.00095622 0.000122893 -2.73243e-005 -66.7416 80.4058 67.2171 -0.000437128 1.59442e-005 -2.73233e-005 -0.000136598 -0.000109293 -5.4645e-005 -6.42159 81.2158 8.01779 -0.000218561 1.68998e-005 0.000212138 0.00090159 -0.000184813 -0.000218569 -59.9282 75.5373 58.5147 -15.478 19.9049 12.0644 -167.277 84.4999 48.8109 178.213 -14.2429 0.620334 6.8706e-006 2.12778 2.69633e-005 -126.7 -8.50138 0.493267 -7.06752e-006 -12.4016 4.75316e-006 6.83546 -1.29706 -21.4648 -72.0648 39.0385 39.3397 33.3638 2.10361 14.835 0.588946 0.308273 6.35287 -99.6409 81.413 100.35 -0.0181409 3.00752e-005 -0.117315 -0.124139 0.00241113 -0.799296 -79.8382 79.5773 80.5374 -0.000260643 -0.000218569 2.35681e-005 -0.000956222 0.000122992 -2.73238e-005 -66.7416 80.4058 67.2171 -0.000437129 1.48784e-005 -2.7323e-005 -0.0001366 -0.000109287 -5.46446e-005 -6.42159 81.2158 8.01779 -0.000218563 1.95755e-005 0.000212294 0.000901587 -0.00019125 -0.000218569 0.000811311 0.56661 89.91 -113.736 5.86359 -7.42062 1.72422e-006 3.38073 -5.96517e-008 128.551 -3.34366 -0.00655582 -1.11557e-007 -5.10784 -1.00749e-007 -71.174 2.2375 -2.15857 -35.4947 3.27697e-006 6.20964e-007 -180 -0.566579 -90.09 -86.3628 0.804195 14.4316 -5.83543e-008 6.31849 -1.03982e-009 102.418 -3.44706 -0.00770271 4.05979e-007 -5.29031 4.63741e-008 -56.3128 -12.2247 7.79414 -35.4947 -2.53048e-008 -5.28814e-007 
